# Rhino

mtllib 134.mtl
usemtl 石こう (10)
v -2179.9931640625 724.03369140625 9471.849609375
v -2179.9931640625 814.03369140625 9471.849609375
v -3149.9931640625 724.03369140625 9471.849609375
v -3149.9931640625 814.03369140625 9471.849609375
v -3149.9931640625 724.03369140625 9471.849609375
v -3149.9931640625 814.03369140625 9471.849609375
v -3149.9931640625 724.03369140625 9516.849609375
v -3149.9931640625 814.03369140625 9516.849609375
v -3149.9931640625 724.03369140625 9516.849609375
v -3149.9931640625 814.03369140625 9516.849609375
v -2179.9931640625 724.03369140625 9516.849609375
v -2179.9931640625 814.03369140625 9516.849609375
v -2179.9931640625 724.03369140625 9516.849609375
v -2179.9931640625 814.03369140625 9516.849609375
v -2179.9931640625 724.03369140625 9471.849609375
v -2179.9931640625 814.03369140625 9471.849609375
v -2179.9931640625 724.03369140625 9471.849609375
v -3149.9931640625 724.03369140625 9471.849609375
v -3149.9931640625 724.03369140625 9516.849609375
v -2179.9931640625 724.03369140625 9516.849609375
v -2179.9931640625 814.03369140625 9471.849609375
v -3149.9931640625 814.03369140625 9471.849609375
v -3149.9931640625 814.03369140625 9516.849609375
v -2179.9931640625 814.03369140625 9516.849609375
vt 0 0
vt 0 0.74999946355819702
vt 0.48107254505157471 0
vt 0.48107254505157471 0.74999946355819702
vt 0.48107254505157471 0
vt 0.48107254505157471 0.74999946355819702
vt 0.5 0
vt 0.5 0.74999946355819702
vt 0.5 0
vt 0.5 0.74999946355819702
vt 0.98107254505157471 0
vt 0.98107254505157471 0.74999946355819702
vt 0.98107254505157471 0
vt 0.98107254505157471 0.74999946355819702
vt 1 0
vt 1 0.74999946355819702
vt 0.47783252596855164 0.75000017881393433
vt 0 0.75000017881393433
vt 0 1
vt 0.47783252596855164 1
vt 1 1
vt 0.52216750383377075 1
vt 0.52216750383377075 0.75000017881393433
vt 1 0.75000017881393433
vn 0 0 -1
vn 0 0 -1
vn 0 0 -1
vn 0 0 -1
vn -1 0 0
vn -1 0 0
vn -1 0 0
vn -1 0 0
vn 0 0 1
vn 0 0 1
vn 0 0 1
vn 0 0 1
vn 1 0 0
vn 1 0 0
vn 1 0 0
vn 1 0 0
vn 0 -1 0
vn 0 -1 0
vn 0 -1 0
vn 0 -1 0
vn 0 1 0
vn 0 1 0
vn 0 1 0
vn 0 1 0
f 1/1/1 3/3/3 4/4/4
f 5/5/5 7/7/7 8/8/8
f 9/9/9 11/11/11 12/12/12
f 13/13/13 15/15/15 16/16/16
f 17/17/17 20/20/20 19/19/19
f 19/19/19 18/18/18 17/17/17
f 21/21/21 23/23/23 24/24/24
f 23/23/23 21/21/21 22/22/22
f 1/1/1 4/4/4 2/2/2
f 5/5/5 8/8/8 6/6/6
f 9/9/9 12/12/12 10/10/10
f 13/13/13 16/16/16 14/14/14
usemtl 石こう (10)
v -3038.4931640625 209.29402160644531 9698.3095703125
v -3038.4931640625 272.93362426757813 9761.94921875
v -3038.4931640625 750.39404296875 9157.2099609375
v -3038.4931640625 814.03369140625 9220.849609375
v -3038.4931640625 750.39404296875 9157.2099609375
v -3038.4931640625 814.03369140625 9220.849609375
v -3050.4931640625 750.39404296875 9157.2099609375
v -3050.4931640625 814.03369140625 9220.849609375
v -3050.4931640625 750.39404296875 9157.2099609375
v -3050.4931640625 814.03369140625 9220.849609375
v -3050.4931640625 209.29402160644531 9698.3095703125
v -3050.4931640625 272.93362426757813 9761.94921875
v -3050.4931640625 209.29402160644531 9698.3095703125
v -3050.4931640625 272.93362426757813 9761.94921875
v -3038.4931640625 209.29402160644531 9698.3095703125
v -3038.4931640625 272.93362426757813 9761.94921875
v -3038.4931640625 209.29402160644531 9698.3095703125
v -3038.4931640625 750.39404296875 9157.2099609375
v -3050.4931640625 750.39404296875 9157.2099609375
v -3050.4931640625 209.29402160644531 9698.3095703125
v -3038.4931640625 272.93362426757813 9761.94921875
v -3038.4931640625 814.03369140625 9220.849609375
v -3050.4931640625 814.03369140625 9220.849609375
v -3050.4931640625 272.93362426757813 9761.94921875
vt 0 0
vt 0 0.89473605155944824
vt 0.48107254505157471 0
vt 0.48107254505157471 0.89473605155944824
vt 0.48107254505157471 0
vt 0.48107254505157471 0.89473605155944824
vt 0.5 0
vt 0.5 0.89473605155944824
vt 0.5 0
vt 0.5 0.89473605155944824
vt 0.98107254505157471 0
vt 0.98107254505157471 0.89473605155944824
vt 0.98107254505157471 0
vt 0.98107254505157471 0.89473605155944824
vt 1 0
vt 1 0.89473605155944824
vt 0.4922802746295929 0.89473694562911987
vt 0 0.89473694562911987
vt 0 1
vt 0.4922802746295929 1
vt 1 1
vt 0.50771969556808472 1
vt 0.50771969556808472 0.89473694562911987
vt 1 0.89473694562911987
vn 1 0 0
vn 1 0 0
vn 1 0 0
vn 1 0 0
vn 0 0.70710676908493042 -0.70710676908493042
vn 0 0.70710676908493042 -0.70710676908493042
vn 0 0.70710676908493042 -0.70710676908493042
vn 0 0.70710676908493042 -0.70710676908493042
vn -1 0 0
vn -1 0 0
vn -1 0 0
vn -1 0 0
vn 0 -0.70710676908493042 0.70710676908493042
vn 0 -0.70710676908493042 0.70710676908493042
vn 0 -0.70710676908493042 0.70710676908493042
vn 0 -0.70710676908493042 0.70710676908493042
vn 0 -0.70710676908493042 -0.70710676908493042
vn 0 -0.70710676908493042 -0.70710676908493042
vn 0 -0.70710676908493042 -0.70710676908493042
vn 0 -0.70710676908493042 -0.70710676908493042
vn 0 0.70710676908493042 0.70710676908493042
vn 0 0.70710676908493042 0.70710676908493042
vn 0 0.70710676908493042 0.70710676908493042
vn 0 0.70710676908493042 0.70710676908493042
f 25/25/25 27/27/27 26/26/26
f 29/29/29 31/31/31 32/32/32
f 33/33/33 35/35/35 36/36/36
f 37/37/37 39/39/39 40/40/40
f 41/41/41 44/44/44 43/43/43
f 43/43/43 42/42/42 41/41/41
f 45/45/45 47/47/47 48/48/48
f 47/47/47 45/45/45 46/46/46
f 27/27/27 28/28/28 26/26/26
f 29/29/29 32/32/32 30/30/30
f 33/33/33 36/36/36 34/34/34
f 37/37/37 40/40/40 38/38/38
usemtl 石こう (10)
v -2291.4931640625 209.29402160644531 9698.3095703125
v -2291.4931640625 272.93362426757813 9761.94921875
v -2279.4931640625 209.29402160644531 9698.3095703125
v -2279.4931640625 272.93362426757813 9761.94921875
v -2279.4931640625 209.29402160644531 9698.3095703125
v -2279.4931640625 272.93362426757813 9761.94921875
v -2279.4931640625 750.39404296875 9157.2099609375
v -2279.4931640625 814.03369140625 9220.849609375
v -2279.4931640625 750.39404296875 9157.2099609375
v -2279.4931640625 814.03369140625 9220.849609375
v -2291.4931640625 750.39404296875 9157.2099609375
v -2291.4931640625 814.03369140625 9220.849609375
v -2291.4931640625 750.39404296875 9157.2099609375
v -2291.4931640625 814.03369140625 9220.849609375
v -2291.4931640625 209.29402160644531 9698.3095703125
v -2291.4931640625 272.93362426757813 9761.94921875
v -2291.4931640625 209.29402160644531 9698.3095703125
v -2279.4931640625 209.29402160644531 9698.3095703125
v -2279.4931640625 750.39404296875 9157.2099609375
v -2291.4931640625 750.39404296875 9157.2099609375
v -2291.4931640625 272.93362426757813 9761.94921875
v -2279.4931640625 272.93362426757813 9761.94921875
v -2279.4931640625 814.03369140625 9220.849609375
v -2291.4931640625 814.03369140625 9220.849609375
vt 0 0
vt 0 0.89473605155944824
vt 0.018927445635199547 0
vt 0.018927445635199547 0.89473605155944824
vt 0.018927445635199547 0
vt 0.018927445635199547 0.89473605155944824
vt 0.5 0
vt 0.5 0.89473605155944824
vt 0.5 0
vt 0.5 0.89473605155944824
vt 0.51892745494842529 0
vt 0.51892745494842529 0.89473605155944824
vt 0.51892745494842529 0
vt 0.51892745494842529 0.89473605155944824
vt 1 0
vt 1 0.89473605155944824
vt 0.4922802746295929 1
vt 0.4922802746295929 0.89473694562911987
vt 0 0.89473694562911987
vt 0 1
vt 1 0.89473694562911987
vt 1 1
vt 0.50771969556808472 1
vt 0.50771969556808472 0.89473694562911987
vn 0 -0.70710676908493042 0.70710676908493042
vn 0 -0.70710676908493042 0.70710676908493042
vn 0 -0.70710676908493042 0.70710676908493042
vn 0 -0.70710676908493042 0.70710676908493042
vn 1 0 0
vn 1 0 0
vn 1 0 0
vn 1 0 0
vn 0 0.70710676908493042 -0.70710676908493042
vn 0 0.70710676908493042 -0.70710676908493042
vn 0 0.70710676908493042 -0.70710676908493042
vn 0 0.70710676908493042 -0.70710676908493042
vn -1 0 0
vn -1 0 0
vn -1 0 0
vn -1 0 0
vn 0 -0.70710676908493042 -0.70710676908493042
vn 0 -0.70710676908493042 -0.70710676908493042
vn 0 -0.70710676908493042 -0.70710676908493042
vn 0 -0.70710676908493042 -0.70710676908493042
vn 0 0.70710676908493042 0.70710676908493042
vn 0 0.70710676908493042 0.70710676908493042
vn 0 0.70710676908493042 0.70710676908493042
vn 0 0.70710676908493042 0.70710676908493042
f 49/49/49 51/51/51 52/52/52
f 53/53/53 55/55/55 54/54/54
f 57/57/57 59/59/59 60/60/60
f 61/61/61 63/63/63 64/64/64
f 66/66/66 65/65/65 68/68/68
f 68/68/68 67/67/67 66/66/66
f 70/70/70 72/72/72 69/69/69
f 72/72/72 70/70/70 71/71/71
f 49/49/49 52/52/52 50/50/50
f 55/55/55 56/56/56 54/54/54
f 57/57/57 60/60/60 58/58/58
f 61/61/61 64/64/64 62/62/62
usemtl 石こう (10)
v -3167.4931640625 1225.0994873046875 9456.849609375
v -2162.4931640625 1225.0994873046875 9456.849609375
v -3167.4931640625 1285.0994873046875 9456.849609375
v -2162.4931640625 1285.0994873046875 9456.849609375
v -3167.4931640625 1285.0994873046875 9456.849609375
v -2162.4931640625 1285.0994873046875 9456.849609375
v -3167.4931640625 1285.0994873046875 9516.849609375
v -2162.4931640625 1285.0994873046875 9516.849609375
v -3167.4931640625 1285.0994873046875 9516.849609375
v -2162.4931640625 1285.0994873046875 9516.849609375
v -3167.4931640625 1225.0994873046875 9516.849609375
v -2162.4931640625 1225.0994873046875 9516.849609375
v -3167.4931640625 1225.0994873046875 9516.849609375
v -2162.4931640625 1225.0994873046875 9516.849609375
v -3167.4931640625 1225.0994873046875 9456.849609375
v -2162.4931640625 1225.0994873046875 9456.849609375
v -3167.4931640625 1225.0994873046875 9456.849609375
v -3167.4931640625 1285.0994873046875 9456.849609375
v -3167.4931640625 1285.0994873046875 9516.849609375
v -3167.4931640625 1225.0994873046875 9516.849609375
v -2162.4931640625 1225.0994873046875 9456.849609375
v -2162.4931640625 1285.0994873046875 9456.849609375
v -2162.4931640625 1285.0994873046875 9516.849609375
v -2162.4931640625 1225.0994873046875 9516.849609375
vt 0 0
vt 0 1
vt 0.20833316445350647 0
vt 0.20833316445350647 1
vt 0.20833316445350647 0
vt 0.20833316445350647 1
vt 0.41666632890701294 0
vt 0.41666632890701294 1
vt 0.41666632890701294 0
vt 0.41666632890701294 1
vt 0.62499946355819702 0
vt 0.62499946355819702 1
vt 0.62499946355819702 0
vt 0.62499946355819702 1
vt 0.83333265781402588 0
vt 0.83333265781402588 1
vt 0.83333349227905273 0.059701491147279739
vt 1 0.059701491147279739
vt 1 0
vt 0.83333349227905273 0
vt 0.83333349227905273 0.94029849767684937
vt 1 0.94029849767684937
vt 1 1
vt 0.83333349227905273 1
vn 0 0 -1
vn 0 0 -1
vn 0 0 -1
vn 0 0 -1
vn 0 1 0
vn 0 1 0
vn 0 1 0
vn 0 1 0
vn 0 0 1
vn 0 0 1
vn 0 0 1
vn 0 0 1
vn 0 -1 0
vn 0 -1 0
vn 0 -1 0
vn 0 -1 0
vn -1 0 0
vn -1 0 0
vn -1 0 0
vn -1 0 0
vn 1 0 0
vn 1 0 0
vn 1 0 0
vn 1 0 0
f 73/73/73 75/75/75 76/76/76
f 77/77/77 79/79/79 80/80/80
f 81/81/81 83/83/83 84/84/84
f 85/85/85 87/87/87 88/88/88
f 90/90/90 89/89/89 92/92/92
f 92/92/92 91/91/91 90/90/90
f 94/94/94 96/96/96 93/93/93
f 96/96/96 94/94/94 95/95/95
f 73/73/73 76/76/76 74/74/74
f 77/77/77 80/80/80 78/78/78
f 81/81/81 84/84/84 82/82/82
f 85/85/85 88/88/88 86/86/86
usemtl 石こう (10)
v -3167.4931640625 1025.7100830078125 9456.849609375
v -2162.4931640625 1025.7100830078125 9456.849609375
v -3167.4931640625 1085.7100830078125 9456.849609375
v -2162.4931640625 1085.7100830078125 9456.849609375
v -3167.4931640625 1085.7100830078125 9456.849609375
v -2162.4931640625 1085.7100830078125 9456.849609375
v -3167.4931640625 1085.7100830078125 9516.849609375
v -2162.4931640625 1085.7100830078125 9516.849609375
v -3167.4931640625 1085.7100830078125 9516.849609375
v -2162.4931640625 1085.7100830078125 9516.849609375
v -3167.4931640625 1025.7100830078125 9516.849609375
v -2162.4931640625 1025.7100830078125 9516.849609375
v -3167.4931640625 1025.7100830078125 9516.849609375
v -2162.4931640625 1025.7100830078125 9516.849609375
v -3167.4931640625 1025.7100830078125 9456.849609375
v -2162.4931640625 1025.7100830078125 9456.849609375
v -3167.4931640625 1025.7100830078125 9456.849609375
v -3167.4931640625 1085.7100830078125 9456.849609375
v -3167.4931640625 1085.7100830078125 9516.849609375
v -3167.4931640625 1025.7100830078125 9516.849609375
v -2162.4931640625 1025.7100830078125 9456.849609375
v -2162.4931640625 1085.7100830078125 9456.849609375
v -2162.4931640625 1085.7100830078125 9516.849609375
v -2162.4931640625 1025.7100830078125 9516.849609375
vt 0 0
vt 0 1
vt 0.20833316445350647 0
vt 0.20833316445350647 1
vt 0.20833316445350647 0
vt 0.20833316445350647 1
vt 0.41666632890701294 0
vt 0.41666632890701294 1
vt 0.41666632890701294 0
vt 0.41666632890701294 1
vt 0.62499946355819702 0
vt 0.62499946355819702 1
vt 0.62499946355819702 0
vt 0.62499946355819702 1
vt 0.83333265781402588 0
vt 0.83333265781402588 1
vt 0.83333349227905273 0.059701491147279739
vt 1 0.059701491147279739
vt 1 0
vt 0.83333349227905273 0
vt 0.83333349227905273 0.94029849767684937
vt 1 0.94029849767684937
vt 1 1
vt 0.83333349227905273 1
vn 0 0 -1
vn 0 0 -1
vn 0 0 -1
vn 0 0 -1
vn 0 1 0
vn 0 1 0
vn 0 1 0
vn 0 1 0
vn 0 0 1
vn 0 0 1
vn 0 0 1
vn 0 0 1
vn 0 -1 0
vn 0 -1 0
vn 0 -1 0
vn 0 -1 0
vn -1 0 0
vn -1 0 0
vn -1 0 0
vn -1 0 0
vn 1 0 0
vn 1 0 0
vn 1 0 0
vn 1 0 0
f 97/97/97 99/99/99 100/100/100
f 101/101/101 103/103/103 104/104/104
f 105/105/105 107/107/107 108/108/108
f 109/109/109 111/111/111 112/112/112
f 114/114/114 113/113/113 116/116/116
f 116/116/116 115/115/115 114/114/114
f 118/118/118 120/120/120 117/117/117
f 120/120/120 118/118/118 119/119/119
f 97/97/97 100/100/100 98/98/98
f 101/101/101 104/104/104 102/102/102
f 105/105/105 108/108/108 106/106/106
f 109/109/109 112/112/112 110/110/110
usemtl 石こう (10)
v -2179.9931640625 724.03369140625 9310.849609375
v -2179.9931640625 814.03369140625 9310.849609375
v -3149.9931640625 724.03369140625 9310.849609375
v -3149.9931640625 814.03369140625 9310.849609375
v -3149.9931640625 724.03369140625 9310.849609375
v -3149.9931640625 814.03369140625 9310.849609375
v -3149.9931640625 724.03369140625 9322.849609375
v -3149.9931640625 814.03369140625 9322.849609375
v -3149.9931640625 724.03369140625 9322.849609375
v -3149.9931640625 814.03369140625 9322.849609375
v -2179.9931640625 724.03369140625 9322.849609375
v -2179.9931640625 814.03369140625 9322.849609375
v -2179.9931640625 724.03369140625 9322.849609375
v -2179.9931640625 814.03369140625 9322.849609375
v -2179.9931640625 724.03369140625 9310.849609375
v -2179.9931640625 814.03369140625 9310.849609375
v -2179.9931640625 724.03369140625 9310.849609375
v -3149.9931640625 724.03369140625 9310.849609375
v -3149.9931640625 724.03369140625 9322.849609375
v -2179.9931640625 724.03369140625 9322.849609375
v -2179.9931640625 814.03369140625 9310.849609375
v -3149.9931640625 814.03369140625 9310.849609375
v -3149.9931640625 814.03369140625 9322.849609375
v -2179.9931640625 814.03369140625 9322.849609375
vt 0 0
vt 0 0.89473605155944824
vt 0.48107254505157471 0
vt 0.48107254505157471 0.89473605155944824
vt 0.48107254505157471 0
vt 0.48107254505157471 0.89473605155944824
vt 0.5 0
vt 0.5 0.89473605155944824
vt 0.5 0
vt 0.5 0.89473605155944824
vt 0.98107254505157471 0
vt 0.98107254505157471 0.89473605155944824
vt 0.98107254505157471 0
vt 0.98107254505157471 0.89473605155944824
vt 1 0
vt 1 0.89473605155944824
vt 0.49389001727104187 0.89473694562911987
vt 0 0.89473694562911987
vt 0 1
vt 0.49389001727104187 1
vt 1 1
vt 0.50610995292663574 1
vt 0.50610995292663574 0.89473694562911987
vt 1 0.89473694562911987
vn 0 0 -1
vn 0 0 -1
vn 0 0 -1
vn 0 0 -1
vn -1 0 0
vn -1 0 0
vn -1 0 0
vn -1 0 0
vn 0 0 1
vn 0 0 1
vn 0 0 1
vn 0 0 1
vn 1 0 0
vn 1 0 0
vn 1 0 0
vn 1 0 0
vn 0 -1 0
vn 0 -1 0
vn 0 -1 0
vn 0 -1 0
vn 0 1 0
vn 0 1 0
vn 0 1 0
vn 0 1 0
f 121/121/121 123/123/123 124/124/124
f 125/125/125 127/127/127 128/128/128
f 129/129/129 131/131/131 132/132/132
f 133/133/133 135/135/135 136/136/136
f 137/137/137 140/140/140 139/139/139
f 139/139/139 138/138/138 137/137/137
f 141/141/141 143/143/143 144/144/144
f 143/143/143 141/141/141 142/142/142
f 121/121/121 124/124/124 122/122/122
f 125/125/125 128/128/128 126/126/126
f 129/129/129 132/132/132 130/130/130
f 133/133/133 136/136/136 134/134/134
usemtl 石こう (10)
v -2279.4931640625 724.03369140625 9621.849609375
v -2279.4931640625 814.03369140625 9621.849609375
v -2267.4931640625 724.03369140625 9621.849609375
v -2267.4931640625 814.03369140625 9621.849609375
v -2267.4931640625 724.03369140625 9621.849609375
v -2267.4931640625 814.03369140625 9621.849609375
v -2267.4931640625 724.03369140625 9116.849609375
v -2267.4931640625 814.03369140625 9116.849609375
v -2267.4931640625 724.03369140625 9116.849609375
v -2267.4931640625 814.03369140625 9116.849609375
v -2279.4931640625 724.03369140625 9116.849609375
v -2279.4931640625 814.03369140625 9116.849609375
v -2279.4931640625 724.03369140625 9116.849609375
v -2279.4931640625 814.03369140625 9116.849609375
v -2279.4931640625 724.03369140625 9621.849609375
v -2279.4931640625 814.03369140625 9621.849609375
v -2279.4931640625 724.03369140625 9621.849609375
v -2267.4931640625 724.03369140625 9621.849609375
v -2267.4931640625 724.03369140625 9116.849609375
v -2279.4931640625 724.03369140625 9116.849609375
v -2279.4931640625 814.03369140625 9621.849609375
v -2267.4931640625 814.03369140625 9621.849609375
v -2267.4931640625 814.03369140625 9116.849609375
v -2279.4931640625 814.03369140625 9116.849609375
vt 0 0
vt 0 0.89473605155944824
vt 0.018927445635199547 0
vt 0.018927445635199547 0.89473605155944824
vt 0.018927445635199547 0
vt 0.018927445635199547 0.89473605155944824
vt 0.5 0
vt 0.5 0.89473605155944824
vt 0.5 0
vt 0.5 0.89473605155944824
vt 0.51892745494842529 0
vt 0.51892745494842529 0.89473605155944824
vt 0.51892745494842529 0
vt 0.51892745494842529 0.89473605155944824
vt 1 0
vt 1 0.89473605155944824
vt 0.48839458823204041 1
vt 0.48839458823204041 0.89473694562911987
vt 0 0.89473694562911987
vt 0 1
vt 1 0.89473694562911987
vt 1 1
vt 0.51160544157028198 1
vt 0.51160544157028198 0.89473694562911987
vn 0 0 1
vn 0 0 1
vn 0 0 1
vn 0 0 1
vn 1 0 0
vn 1 0 0
vn 1 0 0
vn 1 0 0
vn 0 0 -1
vn 0 0 -1
vn 0 0 -1
vn 0 0 -1
vn -1 0 0
vn -1 0 0
vn -1 0 0
vn -1 0 0
vn 0 -1 0
vn 0 -1 0
vn 0 -1 0
vn 0 -1 0
vn 0 1 0
vn 0 1 0
vn 0 1 0
vn 0 1 0
f 145/145/145 147/147/147 148/148/148
f 149/149/149 151/151/151 152/152/152
f 153/153/153 155/155/155 156/156/156
f 157/157/157 159/159/159 160/160/160
f 162/162/162 161/161/161 164/164/164
f 164/164/164 163/163/163 162/162/162
f 166/166/166 168/168/168 165/165/165
f 168/168/168 166/166/166 167/167/167
f 145/145/145 148/148/148 146/146/146
f 149/149/149 152/152/152 150/150/150
f 153/153/153 156/156/156 154/154/154
f 157/157/157 160/160/160 158/158/158
usemtl 石こう (10)
v -3050.4931640625 724.03369140625 9621.849609375
v -3050.4931640625 814.03369140625 9621.849609375
v -3050.4931640625 724.03369140625 9116.849609375
v -3050.4931640625 814.03369140625 9116.849609375
v -3050.4931640625 724.03369140625 9116.849609375
v -3050.4931640625 814.03369140625 9116.849609375
v -3062.4931640625 724.03369140625 9116.849609375
v -3062.4931640625 814.03369140625 9116.849609375
v -3062.4931640625 724.03369140625 9116.849609375
v -3062.4931640625 814.03369140625 9116.849609375
v -3062.4931640625 724.03369140625 9621.849609375
v -3062.4931640625 814.03369140625 9621.849609375
v -3062.4931640625 724.03369140625 9621.849609375
v -3062.4931640625 814.03369140625 9621.849609375
v -3050.4931640625 724.03369140625 9621.849609375
v -3050.4931640625 814.03369140625 9621.849609375
v -3050.4931640625 724.03369140625 9621.849609375
v -3050.4931640625 724.03369140625 9116.849609375
v -3062.4931640625 724.03369140625 9116.849609375
v -3062.4931640625 724.03369140625 9621.849609375
v -3050.4931640625 814.03369140625 9621.849609375
v -3050.4931640625 814.03369140625 9116.849609375
v -3062.4931640625 814.03369140625 9116.849609375
v -3062.4931640625 814.03369140625 9621.849609375
vt 0 0
vt 0 0.89473605155944824
vt 0.48107254505157471 0
vt 0.48107254505157471 0.89473605155944824
vt 0.48107254505157471 0
vt 0.48107254505157471 0.89473605155944824
vt 0.5 0
vt 0.5 0.89473605155944824
vt 0.5 0
vt 0.5 0.89473605155944824
vt 0.98107254505157471 0
vt 0.98107254505157471 0.89473605155944824
vt 0.98107254505157471 0
vt 0.98107254505157471 0.89473605155944824
vt 1 0
vt 1 0.89473605155944824
vt 0.48839458823204041 0.89473694562911987
vt 0 0.89473694562911987
vt 0 1
vt 0.48839458823204041 1
vt 1 1
vt 0.51160544157028198 1
vt 0.51160544157028198 0.89473694562911987
vt 1 0.89473694562911987
vn 1 0 0
vn 1 0 0
vn 1 0 0
vn 1 0 0
vn 0 0 -1
vn 0 0 -1
vn 0 0 -1
vn 0 0 -1
vn -1 0 0
vn -1 0 0
vn -1 0 0
vn -1 0 0
vn 0 0 1
vn 0 0 1
vn 0 0 1
vn 0 0 1
vn 0 -1 0
vn 0 -1 0
vn 0 -1 0
vn 0 -1 0
vn 0 1 0
vn 0 1 0
vn 0 1 0
vn 0 1 0
f 169/169/169 171/171/171 172/172/172
f 173/173/173 175/175/175 176/176/176
f 177/177/177 179/179/179 180/180/180
f 181/181/181 183/183/183 184/184/184
f 185/185/185 188/188/188 187/187/187
f 187/187/187 186/186/186 185/185/185
f 189/189/189 191/191/191 192/192/192
f 191/191/191 189/189/189 190/190/190
f 169/169/169 172/172/172 170/170/170
f 173/173/173 176/176/176 174/174/174
f 177/177/177 180/180/180 178/178/178
f 181/181/181 184/184/184 182/182/182
usemtl 石こう (10)
v -3167.4931640625 814.03369140625 9516.849609375
v -3167.4931640625 838.03369140625 9516.849609375
v -2162.4931640625 814.03369140625 9516.849609375
v -2162.4931640625 838.03369140625 9516.849609375
v -2162.4931640625 814.03369140625 9516.849609375
v -2162.4931640625 838.03369140625 9516.849609375
v -2162.4931640625 814.03369140625 9116.849609375
v -2162.4931640625 838.03369140625 9116.849609375
v -2162.4931640625 814.03369140625 9116.849609375
v -2162.4931640625 838.03369140625 9116.849609375
v -3167.4931640625 814.03369140625 9116.849609375
v -3167.4931640625 838.03369140625 9116.849609375
v -3167.4931640625 814.03369140625 9116.849609375
v -3167.4931640625 838.03369140625 9116.849609375
v -3167.4931640625 814.03369140625 9516.849609375
v -3167.4931640625 838.03369140625 9516.849609375
v -3167.4931640625 814.03369140625 9516.849609375
v -2162.4931640625 814.03369140625 9516.849609375
v -2162.4931640625 814.03369140625 9116.849609375
v -3167.4931640625 814.03369140625 9116.849609375
v -3167.4931640625 838.03369140625 9516.849609375
v -2162.4931640625 838.03369140625 9516.849609375
v -2162.4931640625 838.03369140625 9116.849609375
v -3167.4931640625 838.03369140625 9116.849609375
vt 0 0
vt 0 0.51456284523010254
vt 0.3538622260093689 0
vt 0.3538622260093689 0.51456284523010254
vt 0.3538622260093689 0
vt 0.3538622260093689 0.51456284523010254
vt 0.5 0
vt 0.5 0.51456284523010254
vt 0.5 0
vt 0.5 0.51456284523010254
vt 0.8538622260093689 0
vt 0.8538622260093689 0.51456284523010254
vt 0.8538622260093689 0
vt 0.8538622260093689 0.51456284523010254
vt 1 0
vt 1 0.51456284523010254
vt 0 1
vt 0.3576512336730957 1
vt 0.3576512336730957 0.51456338167190552
vt 0 0.51456338167190552
vt 0.6423487663269043 0.51456338167190552
vt 1 0.51456338167190552
vt 1 1
vt 0.6423487663269043 1
vn 0 0 1
vn 0 0 1
vn 0 0 1
vn 0 0 1
vn 1 0 0
vn 1 0 0
vn 1 0 0
vn 1 0 0
vn 0 0 -1
vn 0 0 -1
vn 0 0 -1
vn 0 0 -1
vn -1 0 0
vn -1 0 0
vn -1 0 0
vn -1 0 0
vn 0 -1 0
vn 0 -1 0
vn 0 -1 0
vn 0 -1 0
vn 0 1 0
vn 0 1 0
vn 0 1 0
vn 0 1 0
f 193/193/193 195/195/195 196/196/196
f 197/197/197 199/199/199 200/200/200
f 201/201/201 203/203/203 204/204/204
f 205/205/205 207/207/207 208/208/208
f 210/210/210 209/209/209 212/212/212
f 212/212/212 211/211/211 210/210/210
f 214/214/214 216/216/216 213/213/213
f 216/216/216 214/214/214 215/215/215
f 193/193/193 196/196/196 194/194/194
f 197/197/197 200/200/200 198/198/198
f 201/201/201 204/204/204 202/202/202
f 205/205/205 208/208/208 206/206/206
