# Rhino

mtllib 49.mtl
usemtl diffuse_0
v -23156.95703125 0 -315.83578491210938
v -23156.95703125 12 -315.83578491210938
v -23151.53515625 0 -227.20748901367188
v -23151.53515625 12 -227.20748901367188
v -23151.53515625 0 -227.20748901367188
v -23151.53515625 12 -227.20748901367188
v -22546.087890625 0 -250.5968017578125
v -22546.087890625 12 -250.5968017578125
v -22546.087890625 0 -250.5968017578125
v -22546.087890625 12 -250.5968017578125
v -22554.83203125 0 -339.38766479492188
v -22554.83203125 12 -339.38766479492188
v -22554.83203125 0 -339.38766479492188
v -22554.83203125 12 -339.38766479492188
v -23156.95703125 0 -315.83578491210938
v -23156.95703125 12 -315.83578491210938
v -23156.95703125 0 -315.83578491210938
v -23151.53515625 0 -227.20748901367188
v -22546.087890625 0 -250.5968017578125
v -22554.83203125 0 -339.38766479492188
v -23156.95703125 12 -315.83578491210938
v -23151.53515625 12 -227.20748901367188
v -22546.087890625 12 -250.5968017578125
v -22554.83203125 12 -339.38766479492188
vt 0 0
vt 0 0.53155803680419922
vt 0.064041860401630402 0
vt 0.064041860401630402 0.53155803680419922
vt 0.064041860401630402 0
vt 0.064041860401630402 0.53155803680419922
vt 0.50104063749313354 0
vt 0.50104063749313354 0.53155803680419922
vt 0.50104063749313354 0
vt 0.50104063749313354 0.53155803680419922
vt 0.56538993120193481 0
vt 0.56538993120193481 0.53155803680419922
vt 0.56538993120193481 0
vt 0.56538993120193481 0.53155803680419922
vt 1 0
vt 1 0.53155803680419922
vt 0 0.53308713436126709
vt 0.0014398675411939621 1
vt 0.43843865394592285 1
vt 0.43461000919342041 0.5315585732460022
vt 0.56156134605407715 0.99847137928009033
vt 0.56300121545791626 0.5315585732460022
vt 1 0.5315585732460022
vt 0.99617135524749756 1
vn -0.99813413619995117 0 0.061059392988681793
vn -0.99813413619995117 0 0.061059392988681793
vn -0.99813413619995117 0 0.061059392988681793
vn -0.99813413619995117 0 0.061059392988681793
vn 0.038602683693170547 0 0.99925464391708374
vn 0.038602683693170547 0 0.99925464391708374
vn 0.038602683693170547 0 0.99925464391708374
vn 0.038602683693170547 0 0.99925464391708374
vn 0.99518764019012451 0 -0.09798770397901535
vn 0.99518764019012451 0 -0.09798770397901535
vn 0.99518764019012451 0 -0.09798770397901535
vn 0.99518764019012451 0 -0.09798770397901535
vn -0.039084617048501968 0 -0.99923592805862427
vn -0.039084617048501968 0 -0.99923592805862427
vn -0.039084617048501968 0 -0.99923592805862427
vn -0.039084617048501968 0 -0.99923592805862427
vn 0 -1 0
vn 0 -1 0
vn 0 -1 0
vn 0 -1 0
vn 0 1 0
vn 0 1 0
vn 0 1 0
vn 0 1 0
f 1/1/1 3/3/3 4/4/4
f 5/5/5 7/7/7 8/8/8
f 9/9/9 11/11/11 12/12/12
f 13/13/13 15/15/15 16/16/16
f 20/20/20 18/18/18 17/17/17
f 18/18/18 20/20/20 19/19/19
f 24/24/24 21/21/21 22/22/22
f 22/22/22 23/23/23 24/24/24
f 1/1/1 4/4/4 2/2/2
f 5/5/5 8/8/8 6/6/6
f 9/9/9 12/12/12 10/10/10
f 13/13/13 16/16/16 14/14/14
usemtl diffuse_0
v -23156.957329872745 0 -315.83579162462217
v -23151.535623562984 0 -227.20749052026963
v -22546.088817404197 0 -250.59679527227308
v -22554.831301753511 0 -339.38765194499558
cstype bspline
deg 1
curv 0 1386.4990776575164 25 26 27 28 25
parm u 0 0 88.793978714510857 694.69239814194464 783.91261592510159 1386.4990776575164 1386.4990776575164
end
