# Rhino

mtllib 50.mtl
usemtl diffuse_0
v -21655.849609375 0 -300.69384765625
v -21655.849609375 12 -300.69384765625
v -21655.712890625 0 -214.22520446777344
v -21655.712890625 12 -214.22520446777344
v -21655.712890625 0 -214.22520446777344
v -21655.712890625 12 -214.22520446777344
v -21051.12890625 0 -233.46917724609375
v -21051.12890625 12 -233.46917724609375
v -21051.12890625 0 -233.46917724609375
v -21051.12890625 12 -233.46917724609375
v -21051.580078125 0 -320.33364868164063
v -21051.580078125 12 -320.33364868164063
v -21051.580078125 0 -320.33364868164063
v -21051.580078125 12 -320.33364868164063
v -21655.849609375 0 -300.69384765625
v -21655.849609375 12 -300.69384765625
v -21655.849609375 0 -300.69384765625
v -21655.712890625 0 -214.22520446777344
v -21051.12890625 0 -233.46917724609375
v -21051.580078125 0 -320.33364868164063
v -21655.849609375 12 -300.69384765625
v -21655.712890625 12 -214.22520446777344
v -21051.12890625 12 -233.46917724609375
v -21051.580078125 12 -320.33364868164063
vt 0 0
vt 0 0.52675950527191162
vt 0.062531128525733948 0
vt 0.062531128525733948 0.52675950527191162
vt 0.062531128525733948 0
vt 0.062531128525733948 0.52675950527191162
vt 0.49996542930603027 0
vt 0.49996542930603027 0.52675950527191162
vt 0.49996542930603027 0
vt 0.49996542930603027 0.52675950527191162
vt 0.56278359889984131 0
vt 0.56278359889984131 0.52675950527191162
vt 0.56278359889984131 0
vt 0.56278359889984131 0.52675950527191162
vt 1 0
vt 1 0.52675950527191162
vt 0 0.61435294151306152
vt 9.8785232694353908E-05 1
vt 0.43731164932250977 0.91417258977890015
vt 0.43698567152023315 0.5267600417137146
vt 0.56268835067749023 0.91240710020065308
vt 0.56278711557388306 0.5267600417137146
vt 1 0.61258751153945923
vt 0.99967402219772339 1
vn -0.99999874830245972 0 0.0015797768719494343
vn -0.99999874830245972 0 0.0015797768719494343
vn -0.99999874830245972 0 0.0015797768719494343
vn -0.99999874830245972 0 0.0015797768719494343
vn 0.031814053654670715 0 0.99949377775192261
vn 0.031814053654670715 0 0.99949377775192261
vn 0.031814053654670715 0 0.99949377775192261
vn 0.031814053654670715 0 0.99949377775192261
vn 0.99998652935028076 0 -0.0051895249634981155
vn 0.99998652935028076 0 -0.0051895249634981155
vn 0.99998652935028076 0 -0.0051895249634981155
vn 0.99998652935028076 0 -0.0051895249634981155
vn -0.032484643161296844 0 -0.99947226047515869
vn -0.032484643161296844 0 -0.99947226047515869
vn -0.032484643161296844 0 -0.99947226047515869
vn -0.032484643161296844 0 -0.99947226047515869
vn 0 -1 0
vn 0 -1 0
vn 0 -1 0
vn 0 -1 0
vn 0 1 0
vn 0 1 0
vn 0 1 0
vn 0 1 0
f 1/1/1 3/3/3 4/4/4
f 5/5/5 7/7/7 8/8/8
f 9/9/9 11/11/11 12/12/12
f 13/13/13 15/15/15 16/16/16
f 19/19/19 18/18/18 17/17/17
f 17/17/17 20/20/20 19/19/19
f 23/23/23 21/21/21 22/22/22
f 21/21/21 23/23/23 24/24/24
f 1/1/1 4/4/4 2/2/2
f 5/5/5 8/8/8 6/6/6
f 9/9/9 12/12/12 10/10/10
f 13/13/13 16/16/16 14/14/14
