# Rhino

mtllib 51.mtl
usemtl diffuse_0
v -20265.53515625 0 -279.74282836914063
v -20265.53515625 12 -279.74282836914063
v -20260.4453125 0 -194.21263122558594
v -20260.4453125 12 -194.21263122558594
v -20260.4453125 0 -194.21263122558594
v -20260.4453125 12 -194.21263122558594
v -19741.6875 0 -234.21820068359375
v -19741.6875 12 -234.21820068359375
v -19741.6875 0 -234.21820068359375
v -19741.6875 12 -234.21820068359375
v -19747.5625 0 -320.68682861328125
v -19747.5625 12 -320.68682861328125
v -19747.5625 0 -320.68682861328125
v -19747.5625 12 -320.68682861328125
v -20265.53515625 0 -279.74282836914063
v -20265.53515625 12 -279.74282836914063
v -20265.53515625 0 -279.74282836914063
v -20260.4453125 0 -194.21263122558594
v -19741.6875 0 -234.21820068359375
v -19747.5625 0 -320.68682861328125
v -20265.53515625 12 -279.74282836914063
v -20260.4453125 12 -194.21263122558594
v -19741.6875 12 -234.21820068359375
v -19747.5625 12 -320.68682861328125
vt 0 0
vt 0 0.53237462043762207
vt 0.070680588483810425 0
vt 0.070680588483810425 0.53237462043762207
vt 0.070680588483810425 0
vt 0.070680588483810425 0.53237462043762207
vt 0.4998854398727417 0
vt 0.4998854398727417 0.53237462043762207
vt 0.4998854398727417 0
vt 0.4998854398727417 0.53237462043762207
vt 0.57137972116470337 0
vt 0.57137972116470337 0.53237462043762207
vt 0.57137972116470337 0
vt 0.57137972116470337 0.53237462043762207
vt 1 0
vt 1 0.53237462043762207
vt 0.001238790457136929 0.53774923086166382
vt 0 1
vt 0.42920485138893127 1
vt 0.42985826730728149 0.53237515687942505
vt 0.57138055562973022 0.99462598562240601
vt 0.57014173269271851 0.53237515687942505
vt 0.99934661388397217 0.53237515687942505
vt 1 1
vn -0.9982340931892395 0 0.059403318911790848
vn -0.9982340931892395 0 0.059403318911790848
vn -0.9982340931892395 0 0.059403318911790848
vn -0.9982340931892395 0 0.059403318911790848
vn 0.076889842748641968 0 0.99703961610794067
vn 0.076889842748641968 0 0.99703961610794067
vn 0.076889842748641968 0 0.99703961610794067
vn 0.076889842748641968 0 0.99703961610794067
vn 0.99770069122314453 0 -0.067774295806884766
vn 0.99770069122314453 0 -0.067774295806884766
vn 0.99770069122314453 0 -0.067774295806884766
vn 0.99770069122314453 0 -0.067774295806884766
vn -0.078800857067108154 0 -0.9968903660774231
vn -0.078800857067108154 0 -0.9968903660774231
vn -0.078800857067108154 0 -0.9968903660774231
vn -0.078800857067108154 0 -0.9968903660774231
vn 0 -1 0
vn 0 -1 0
vn 0 -1 0
vn 0 -1 0
vn 0 1 0
vn 0 1 0
vn 0 1 0
vn 0 1 0
f 1/1/1 3/3/3 4/4/4
f 5/5/5 7/7/7 8/8/8
f 9/9/9 11/11/11 12/12/12
f 13/13/13 15/15/15 16/16/16
f 19/19/19 18/18/18 17/17/17
f 17/17/17 20/20/20 19/19/19
f 23/23/23 21/21/21 22/22/22
f 21/21/21 23/23/23 24/24/24
f 1/1/1 4/4/4 2/2/2
f 5/5/5 8/8/8 6/6/6
f 9/9/9 12/12/12 10/10/10
f 13/13/13 16/16/16 14/14/14
