# Rhino

mtllib 52.mtl
usemtl diffuse_0
v -18799.853515625 0 -279.89785766601563
v -18799.853515625 12 -279.89785766601563
v -18788.5546875 0 -192.70912170410156
v -18788.5546875 12 -192.70912170410156
v -18788.5546875 0 -192.70912170410156
v -18788.5546875 12 -192.70912170410156
v -18188.37109375 0 -257.68069458007813
v -18188.37109375 12 -257.68069458007813
v -18188.37109375 0 -257.68069458007813
v -18188.37109375 12 -257.68069458007813
v -18199.572265625 0 -346.7447509765625
v -18199.572265625 12 -346.7447509765625
v -18199.572265625 0 -346.7447509765625
v -18199.572265625 12 -346.7447509765625
v -18799.853515625 0 -279.89785766601563
v -18799.853515625 12 -279.89785766601563
v -18799.853515625 0 -279.89785766601563
v -18788.5546875 0 -192.70912170410156
v -18188.37109375 0 -257.68069458007813
v -18199.572265625 0 -346.7447509765625
v -18799.853515625 12 -279.89785766601563
v -18788.5546875 12 -192.70912170410156
v -18188.37109375 12 -257.68069458007813
v -18199.572265625 12 -346.7447509765625
vt 0 0
vt 0 0.53132915496826172
vt 0.0634617879986763 0
vt 0.0634617879986763 0.53132915496826172
vt 0.0634617879986763 0
vt 0.0634617879986763 0.53132915496826172
vt 0.49922412633895874 0
vt 0.49922412633895874 0.53132915496826172
vt 0.49922412633895874 0
vt 0.49922412633895874 0.53132915496826172
vt 0.56401973962783813 0
vt 0.56401973962783813 0.53132915496826172
vt 0.56401973962783813 0
vt 0.56401973962783813 0.53132915496826172
vt 1 0
vt 1 0.53132915496826172
vt 0.43690085411071777 1
vt 0.43576028943061829 0.54100507497787476
vt 0 0.5313296914100647
vt 0.00092057033907622099 1
vt 1 0.5313296914100647
vt 0.9988594651222229 0.99032455682754517
vt 0.56309914588928223 1
vt 0.56401973962783813 0.5313296914100647
vn -0.99170702695846558 0 0.12851908802986145
vn -0.99170702695846558 0 0.12851908802986145
vn -0.99170702695846558 0 0.12851908802986145
vn -0.99170702695846558 0 0.12851908802986145
vn 0.10762395709753036 0 0.99419164657592773
vn 0.10762395709753036 0 0.99419164657592773
vn 0.10762395709753036 0 0.99419164657592773
vn 0.10762395709753036 0 0.99419164657592773
vn 0.99218392372131348 0 -0.12478387355804443
vn 0.99218392372131348 0 -0.12478387355804443
vn 0.99218392372131348 0 -0.12478387355804443
vn 0.99218392372131348 0 -0.12478387355804443
vn -0.11067502945661545 0 -0.99385666847229004
vn -0.11067502945661545 0 -0.99385666847229004
vn -0.11067502945661545 0 -0.99385666847229004
vn -0.11067502945661545 0 -0.99385666847229004
vn 0 -1 0
vn 0 -1 0
vn 0 -1 0
vn 0 -1 0
vn 0 1 0
vn 0 1 0
vn 0 1 0
vn 0 1 0
f 1/1/1 3/3/3 4/4/4
f 5/5/5 7/7/7 8/8/8
f 9/9/9 11/11/11 12/12/12
f 13/13/13 15/15/15 16/16/16
f 18/18/18 20/20/20 19/19/19
f 20/20/20 18/18/18 17/17/17
f 22/22/22 23/23/23 24/24/24
f 24/24/24 21/21/21 22/22/22
f 1/1/1 4/4/4 2/2/2
f 5/5/5 8/8/8 6/6/6
f 9/9/9 12/12/12 10/10/10
f 13/13/13 16/16/16 14/14/14
