# Rhino

mtllib 54.mtl
usemtl diffuse_0
v -15910.302734375 0 -288.276611328125
v -15910.302734375 12 -288.276611328125
v -15908.15234375 0 -200.53459167480469
v -15908.15234375 12 -200.53459167480469
v -15908.15234375 0 -200.53459167480469
v -15908.15234375 12 -200.53459167480469
v -15490.6796875 0 -214.10546875
v -15490.6796875 12 -214.10546875
v -15490.6796875 0 -214.10546875
v -15490.6796875 12 -214.10546875
v -15494.1640625 0 -301.94607543945313
v -15494.1640625 12 -301.94607543945313
v -15494.1640625 0 -301.94607543945313
v -15494.1640625 12 -301.94607543945313
v -15910.302734375 0 -288.276611328125
v -15910.302734375 12 -288.276611328125
v -15910.302734375 0 -288.276611328125
v -15908.15234375 0 -200.53459167480469
v -15490.6796875 0 -214.10546875
v -15494.1640625 0 -301.94607543945313
v -15910.302734375 12 -288.276611328125
v -15908.15234375 12 -200.53459167480469
v -15490.6796875 12 -214.10546875
v -15494.1640625 12 -301.94607543945313
vt 0 0
vt 0 0.53194606304168701
vt 0.086922198534011841 0
vt 0.086922198534011841 0.53194606304168701
vt 0.086922198534011841 0
vt 0.086922198534011841 0.53194606304168701
vt 0.50058847665786743 0
vt 0.50058847665786743 0.53194606304168701
vt 0.50058847665786743 0
vt 0.50058847665786743 0.53194606304168701
vt 0.5876505970954895 0
vt 0.5876505970954895 0.53194606304168701
vt 0.5876505970954895 0
vt 0.5876505970954895 0.53194606304168701
vt 1 0
vt 1 0.53194606304168701
vt 0.00069414172321557999 0.53270190954208374
vt 0 1
vt 0.4136662483215332 1
vt 0.41304352879524231 0.53194659948348999
vt 0.587027907371521 0.99924468994140625
vt 0.5863337516784668 0.53194659948348999
vt 1 0.53194659948348999
vt 0.99937725067138672 1
vn -0.99969965219497681 0 0.024507448077201843
vn -0.99969965219497681 0 0.024507448077201843
vn -0.99969965219497681 0 0.024507448077201843
vn -0.99969965219497681 0 0.024507448077201843
vn 0.032490048557519913 0 0.99947208166122437
vn 0.032490048557519913 0 0.99947208166122437
vn 0.032490048557519913 0 0.99947208166122437
vn 0.032490048557519913 0 0.99947208166122437
vn 0.99921411275863647 0 -0.039638243615627289
vn 0.99921411275863647 0 -0.039638243615627289
vn 0.99921411275863647 0 -0.039638243615627289
vn 0.99921411275863647 0 -0.039638243615627289
vn -0.032830588519573212 0 -0.99946093559265137
vn -0.032830588519573212 0 -0.99946093559265137
vn -0.032830588519573212 0 -0.99946093559265137
vn -0.032830588519573212 0 -0.99946093559265137
vn 0 -1 0
vn 0 -1 0
vn 0 -1 0
vn 0 -1 0
vn 0 1 0
vn 0 1 0
vn 0 1 0
vn 0 1 0
f 1/1/1 3/3/3 4/4/4
f 5/5/5 7/7/7 8/8/8
f 9/9/9 11/11/11 12/12/12
f 13/13/13 15/15/15 16/16/16
f 19/19/19 18/18/18 17/17/17
f 17/17/17 20/20/20 19/19/19
f 23/23/23 21/21/21 22/22/22
f 21/21/21 23/23/23 24/24/24
f 1/1/1 4/4/4 2/2/2
f 5/5/5 8/8/8 6/6/6
f 9/9/9 12/12/12 10/10/10
f 13/13/13 16/16/16 14/14/14
