# Rhino

mtllib 55.mtl
usemtl diffuse_0
v -14496.7919921875 0 -284.96224975585938
v -14496.7919921875 12 -284.96224975585938
v -14494.09375 0 -195.74978637695313
v -14494.09375 12 -195.74978637695313
v -14494.09375 0 -195.74978637695313
v -14494.09375 12 -195.74978637695313
v -13982.2197265625 0 -214.60450744628906
v -13982.2197265625 12 -214.60450744628906
v -13982.2197265625 0 -214.60450744628906
v -13982.2197265625 12 -214.60450744628906
v -13985.9677734375 0 -303.92315673828125
v -13985.9677734375 12 -303.92315673828125
v -13985.9677734375 0 -303.92315673828125
v -13985.9677734375 12 -303.92315673828125
v -14496.7919921875 0 -284.96224975585938
v -14496.7919921875 12 -284.96224975585938
v -14496.7919921875 0 -284.96224975585938
v -14494.09375 0 -195.74978637695313
v -13982.2197265625 0 -214.60450744628906
v -13985.9677734375 0 -303.92315673828125
v -14496.7919921875 12 -284.96224975585938
v -14494.09375 12 -195.74978637695313
v -13982.2197265625 12 -214.60450744628906
v -13985.9677734375 12 -303.92315673828125
vt 0 0
vt 0 0.53144752979278564
vt 0.074251018464565277 0
vt 0.074251018464565277 0.53144752979278564
vt 0.074251018464565277 0
vt 0.074251018464565277 0.53144752979278564
vt 0.50037467479705811 0
vt 0.50037467479705811 0.53144752979278564
vt 0.50037467479705811 0
vt 0.50037467479705811 0.53144752979278564
vt 0.57474547624588013 0
vt 0.57474547624588013 0.53144752979278564
vt 0.57474547624588013 0
vt 0.57474547624588013 0.53144752979278564
vt 1 0
vt 1 0.53144752979278564
vt 0.00048868294106796384 0.53220671415328979
vt 0 1
vt 0.42612364888191223 1
vt 0.4257432222366333 0.53144806623458862
vt 0.57436501979827881 0.9992414116859436
vt 0.57387638092041016 0.53144806623458862
vt 1 0.53144806623458862
vt 0.99961954355239868 1
vn -0.99954289197921753 0 0.030231921002268791
vn -0.99954289197921753 0 0.030231921002268791
vn -0.99954289197921753 0 0.030231921002268791
vn -0.99954289197921753 0 0.030231921002268791
vn 0.036809757351875305 0 0.99932229518890381
vn 0.036809757351875305 0 0.99932229518890381
vn 0.036809757351875305 0 0.99932229518890381
vn 0.036809757351875305 0 0.99932229518890381
vn 0.99912095069885254 0 -0.041921157389879227
vn 0.99912095069885254 0 -0.041921157389879227
vn 0.99912095069885254 0 -0.041921157389879227
vn 0.99912095069885254 0 -0.041921157389879227
vn -0.037092708051204681 0 -0.99931180477142334
vn -0.037092708051204681 0 -0.99931180477142334
vn -0.037092708051204681 0 -0.99931180477142334
vn -0.037092708051204681 0 -0.99931180477142334
vn 0 -1 0
vn 0 -1 0
vn 0 -1 0
vn 0 -1 0
vn 0 1 0
vn 0 1 0
vn 0 1 0
vn 0 1 0
f 1/1/1 3/3/3 4/4/4
f 5/5/5 7/7/7 8/8/8
f 9/9/9 11/11/11 12/12/12
f 13/13/13 15/15/15 16/16/16
f 19/19/19 18/18/18 17/17/17
f 17/17/17 20/20/20 19/19/19
f 23/23/23 21/21/21 22/22/22
f 21/21/21 23/23/23 24/24/24
f 1/1/1 4/4/4 2/2/2
f 5/5/5 8/8/8 6/6/6
f 9/9/9 12/12/12 10/10/10
f 13/13/13 16/16/16 14/14/14
