# Rhino

mtllib 56.mtl
usemtl diffuse_0
v -13074.1982421875 0 -324.82275390625
v -13074.1982421875 12 -324.82275390625
v -13071.6689453125 0 -234.42976379394531
v -13071.6689453125 12 -234.42976379394531
v -13071.6689453125 0 -234.42976379394531
v -13071.6689453125 12 -234.42976379394531
v -12554.66796875 0 -248.0692138671875
v -12554.66796875 12 -248.0692138671875
v -12554.66796875 0 -248.0692138671875
v -12554.66796875 12 -248.0692138671875
v -12555.953125 0 -337.26190185546875
v -12555.953125 12 -337.26190185546875
v -12555.953125 0 -337.26190185546875
v -12555.953125 12 -337.26190185546875
v -13074.1982421875 0 -324.82275390625
v -13074.1982421875 12 -324.82275390625
v -13074.1982421875 0 -324.82275390625
v -13071.6689453125 0 -234.42976379394531
v -12554.66796875 0 -248.0692138671875
v -12555.953125 0 -337.26190185546875
v -13074.1982421875 12 -324.82275390625
v -13071.6689453125 12 -234.42976379394531
v -12554.66796875 12 -248.0692138671875
v -12555.953125 12 -337.26190185546875
vt 0 0
vt 0 0.5275651216506958
vt 0.074414119124412537 0
vt 0.074414119124412537 0.5275651216506958
vt 0.074414119124412537 0
vt 0.074414119124412537 0.5275651216506958
vt 0.50000518560409546 0
vt 0.50000518560409546 0.5275651216506958
vt 0.50000518560409546 0
vt 0.50000518560409546 0.5275651216506958
vt 0.57341009378433228 0
vt 0.57341009378433228 0.5275651216506958
vt 0.57341009378433228 0
vt 0.57341009378433228 0.5275651216506958
vt 1 0
vt 1 0.5275651216506958
vt 0 0.58471399545669556
vt 0.0020816698670387268 1
vt 0.42752468585968018 0.93733727931976318
vt 0.42646709084510803 0.52756565809249878
vt 0.57247531414031982 0.94285160303115845
vt 0.57455700635910034 0.52756565809249878
vt 1 0.59022831916809082
vt 0.99894237518310547 1
vn -0.99960863590240479 0 0.027974123135209084
vn -0.99960863590240479 0 0.027974123135209084
vn -0.99960863590240479 0 0.027974123135209084
vn -0.99960863590240479 0 0.027974123135209084
vn 0.026372712105512619 0 0.9996522068977356
vn 0.026372712105512619 0 0.9996522068977356
vn 0.026372712105512619 0 0.9996522068977356
vn 0.026372712105512619 0 0.9996522068977356
vn 0.99989622831344604 0 -0.014407726004719734
vn 0.99989622831344604 0 -0.014407726004719734
vn 0.99989622831344604 0 -0.014407726004719734
vn 0.99989622831344604 0 -0.014407726004719734
vn -0.023995593190193176 0 -0.99971204996109009
vn -0.023995593190193176 0 -0.99971204996109009
vn -0.023995593190193176 0 -0.99971204996109009
vn -0.023995593190193176 0 -0.99971204996109009
vn 0 -1 0
vn 0 -1 0
vn 0 -1 0
vn 0 -1 0
vn 0 1 0
vn 0 1 0
vn 0 1 0
vn 0 1 0
f 1/1/1 3/3/3 4/4/4
f 5/5/5 7/7/7 8/8/8
f 9/9/9 11/11/11 12/12/12
f 13/13/13 15/15/15 16/16/16
f 19/19/19 18/18/18 17/17/17
f 17/17/17 20/20/20 19/19/19
f 23/23/23 21/21/21 22/22/22
f 21/21/21 23/23/23 24/24/24
f 1/1/1 4/4/4 2/2/2
f 5/5/5 8/8/8 6/6/6
f 9/9/9 12/12/12 10/10/10
f 13/13/13 16/16/16 14/14/14
