# Rhino

mtllib 57.mtl
usemtl diffuse_0
v -11671.0537109375 0 -302.27392578125
v -11671.0537109375 12 -302.27392578125
v -11666.4736328125 0 -213.57989501953125
v -11666.4736328125 12 -213.57989501953125
v -11666.4736328125 0 -213.57989501953125
v -11666.4736328125 12 -213.57989501953125
v -11060.9287109375 0 -227.64462280273438
v -11060.9287109375 12 -227.64462280273438
v -11060.9287109375 0 -227.64462280273438
v -11060.9287109375 12 -227.64462280273438
v -11065.8125 0 -317.0943603515625
v -11065.8125 12 -317.0943603515625
v -11065.8125 0 -317.0943603515625
v -11065.8125 12 -317.0943603515625
v -11671.0537109375 0 -302.27392578125
v -11671.0537109375 12 -302.27392578125
v -11671.0537109375 0 -302.27392578125
v -11666.4736328125 0 -213.57989501953125
v -11060.9287109375 0 -227.64462280273438
v -11065.8125 0 -317.0943603515625
v -11671.0537109375 12 -302.27392578125
v -11666.4736328125 12 -213.57989501953125
v -11060.9287109375 12 -227.64462280273438
v -11065.8125 12 -317.0943603515625
vt 0 0
vt 0 0.53140050172805786
vt 0.063915528357028961 0
vt 0.063915528357028961 0.53140050172805786
vt 0.063915528357028961 0
vt 0.063915528357028961 0.53140050172805786
vt 0.49982529878616333 0
vt 0.49982529878616333 0.53140050172805786
vt 0.49982529878616333 0
vt 0.49982529878616333 0.53140050172805786
vt 0.56429547071456909 0
vt 0.56429547071456909 0.53140050172805786
vt 0.56429547071456909 0
vt 0.56429547071456909 0.53140050172805786
vt 1 0
vt 1 0.53140050172805786
vt 0 0.53539174795150757
vt 0.0018133552512153983 1
vt 0.43772312998771667 1
vt 0.43570417165756226 0.53140103816986084
vt 0.56227689981460571 0.99600929021835327
vt 0.56409025192260742 0.53140103816986084
vt 1 0.53140103816986084
vt 0.99798107147216797 1
vn -0.99866914749145508 0 0.0515744648873806
vn -0.99866914749145508 0 0.0515744648873806
vn -0.99866914749145508 0 0.0515744648873806
vn -0.99866914749145508 0 0.0515744648873806
vn 0.023220337927341461 0 0.99973034858703613
vn 0.023220337927341461 0 0.99973034858703613
vn 0.023220337927341461 0 0.99973034858703613
vn 0.023220337927341461 0 0.99973034858703613
vn 0.998512864112854 0 -0.0545165054500103
vn 0.998512864112854 0 -0.0545165054500103
vn 0.998512864112854 0 -0.0545165054500103
vn 0.998512864112854 0 -0.0545165054500103
vn -0.024479489773511887 0 -0.99970030784606934
vn -0.024479489773511887 0 -0.99970030784606934
vn -0.024479489773511887 0 -0.99970030784606934
vn -0.024479489773511887 0 -0.99970030784606934
vn 0 -1 0
vn 0 -1 0
vn 0 -1 0
vn 0 -1 0
vn 0 1 0
vn 0 1 0
vn 0 1 0
vn 0 1 0
f 1/1/1 3/3/3 4/4/4
f 5/5/5 7/7/7 8/8/8
f 9/9/9 11/11/11 12/12/12
f 13/13/13 15/15/15 16/16/16
f 20/20/20 18/18/18 17/17/17
f 18/18/18 20/20/20 19/19/19
f 24/24/24 21/21/21 22/22/22
f 22/22/22 23/23/23 24/24/24
f 1/1/1 4/4/4 2/2/2
f 5/5/5 8/8/8 6/6/6
f 9/9/9 12/12/12 10/10/10
f 13/13/13 16/16/16 14/14/14
