# Rhino

mtllib 58.mtl
usemtl diffuse_0
v -10186.7021484375 0 -301.08358764648438
v -10186.7021484375 12 -301.08358764648438
v -10189.7861328125 0 -213.69015502929688
v -10189.7861328125 12 -213.69015502929688
v -10189.7861328125 0 -213.69015502929688
v -10189.7861328125 12 -213.69015502929688
v -9673.39453125 0 -178.98983764648438
v -9673.39453125 12 -178.98983764648438
v -9673.39453125 0 -178.98983764648438
v -9673.39453125 12 -178.98983764648438
v -9669.5380859375 0 -268.18252563476563
v -9669.5380859375 12 -268.18252563476563
v -9669.5380859375 0 -268.18252563476563
v -9669.5380859375 12 -268.18252563476563
v -10186.7021484375 0 -301.08358764648438
v -10186.7021484375 12 -301.08358764648438
v -10186.7021484375 0 -301.08358764648438
v -10189.7861328125 0 -213.69015502929688
v -9673.39453125 0 -178.98983764648438
v -9669.5380859375 0 -268.18252563476563
v -10186.7021484375 12 -301.08358764648438
v -10189.7861328125 12 -213.69015502929688
v -9673.39453125 12 -178.98983764648438
v -9669.5380859375 12 -268.18252563476563
vt 0 0
vt 0 0.53149330615997314
vt 0.072122544050216675 0
vt 0.072122544050216675 0.53149330615997314
vt 0.072122544050216675 0
vt 0.072122544050216675 0.53149330615997314
vt 0.49897724390029907 0
vt 0.49897724390029907 0.53149330615997314
vt 0.49897724390029907 0
vt 0.49897724390029907 0.53149330615997314
vt 0.57260751724243164 0
vt 0.57260751724243164 0.53149330615997314
vt 0.57260751724243164 0
vt 0.57260751724243164 0.53149330615997314
vt 1 0
vt 1 0.53149330615997314
vt 0.42888939380645752 1
vt 0.42685198783874512 0.54117602109909058
vt 0 0.53149384260177612
vt 0.0014969410840421915 1
vt 1 0.53149384260177612
vt 0.9979625940322876 0.99031782150268555
vt 0.57111060619354248 1
vt 0.57260751724243164 0.53149384260177612
vn -0.99937772750854492 0 -0.035272154957056046
vn -0.99937772750854492 0 -0.035272154957056046
vn -0.99937772750854492 0 -0.035272154957056046
vn -0.99937772750854492 0 -0.035272154957056046
vn -0.067046403884887695 0 0.99774986505508423
vn -0.067046403884887695 0 0.99774986505508423
vn -0.067046403884887695 0 0.99774986505508423
vn -0.067046403884887695 0 0.99774986505508423
vn 0.99906700849533081 0 0.043187335133552551
vn 0.99906700849533081 0 0.043187335133552551
vn 0.99906700849533081 0 0.043187335133552551
vn 0.99906700849533081 0 0.043187335133552551
vn 0.063489936292171478 0 -0.99798250198364258
vn 0.063489936292171478 0 -0.99798250198364258
vn 0.063489936292171478 0 -0.99798250198364258
vn 0.063489936292171478 0 -0.99798250198364258
vn 0 -1 0
vn 0 -1 0
vn 0 -1 0
vn 0 -1 0
vn 0 1 0
vn 0 1 0
vn 0 1 0
vn 0 1 0
f 1/1/1 3/3/3 4/4/4
f 5/5/5 7/7/7 8/8/8
f 9/9/9 11/11/11 12/12/12
f 13/13/13 15/15/15 16/16/16
f 18/18/18 20/20/20 19/19/19
f 20/20/20 18/18/18 17/17/17
f 22/22/22 23/23/23 24/24/24
f 24/24/24 21/21/21 22/22/22
f 1/1/1 4/4/4 2/2/2
f 5/5/5 8/8/8 6/6/6
f 9/9/9 12/12/12 10/10/10
f 13/13/13 16/16/16 14/14/14
