# Rhino

mtllib 59.mtl
usemtl diffuse_0
v -23114.39453125 0 -1338.23193359375
v -23114.39453125 12 -1338.23193359375
v -23107.107421875 0 -1249.954345703125
v -23107.107421875 12 -1249.954345703125
v -23107.107421875 0 -1249.954345703125
v -23107.107421875 12 -1249.954345703125
v -22594.296875 0 -1279.46630859375
v -22594.296875 12 -1279.46630859375
v -22594.296875 0 -1279.46630859375
v -22594.296875 12 -1279.46630859375
v -22600.9609375 0 -1368.3194580078125
v -22600.9609375 12 -1368.3194580078125
v -22600.9609375 0 -1368.3194580078125
v -22600.9609375 12 -1368.3194580078125
v -23114.39453125 0 -1338.23193359375
v -23114.39453125 12 -1338.23193359375
v -23114.39453125 0 -1338.23193359375
v -23107.107421875 0 -1249.954345703125
v -22594.296875 0 -1279.46630859375
v -22600.9609375 0 -1368.3194580078125
v -23114.39453125 12 -1338.23193359375
v -23107.107421875 12 -1249.954345703125
v -22594.296875 12 -1279.46630859375
v -22600.9609375 12 -1368.3194580078125
vt 0 0
vt 0 0.53154850006103516
vt 0.073468856513500214 0
vt 0.073468856513500214 0.53154850006103516
vt 0.073468856513500214 0
vt 0.073468856513500214 0.53154850006103516
vt 0.49951055645942688 0
vt 0.49951055645942688 0.53154850006103516
vt 0.49951055645942688 0
vt 0.49951055645942688 0.53154850006103516
vt 0.57341468334197998 0
vt 0.57341468334197998 0.53154850006103516
vt 0.57341468334197998 0
vt 0.57341468334197998 0.53154850006103516
vt 1 0
vt 1 0.53154850006103516
vt 0.42779183387756348 1
vt 0.42604145407676697 0.5343782901763916
vt 0 0.53154903650283813
vt 0.0012065209448337555 1
vt 1 0.53154903650283813
vt 0.99824965000152588 0.99717068672180176
vt 0.57220816612243652 1
vt 0.57341468334197998 0.53154903650283813
vn -0.99661028385162354 0 0.082267358899116516
vn -0.99661028385162354 0 0.082267358899116516
vn -0.99661028385162354 0 0.082267358899116516
vn -0.99661028385162354 0 0.082267358899116516
vn 0.057454440742731094 0 0.99834811687469482
vn 0.057454440742731094 0 0.99834811687469482
vn 0.057454440742731094 0 0.99834811687469482
vn 0.057454440742731094 0 0.99834811687469482
vn 0.99719929695129395 0 -0.074789948761463165
vn 0.99719929695129395 0 -0.074789948761463165
vn 0.99719929695129395 0 -0.074789948761463165
vn 0.99719929695129395 0 -0.074789948761463165
vn -0.058500219136476517 0 -0.9982873797416687
vn -0.058500219136476517 0 -0.9982873797416687
vn -0.058500219136476517 0 -0.9982873797416687
vn -0.058500219136476517 0 -0.9982873797416687
vn 0 -1 0
vn 0 -1 0
vn 0 -1 0
vn 0 -1 0
vn 0 1 0
vn 0 1 0
vn 0 1 0
vn 0 1 0
f 1/1/1 3/3/3 4/4/4
f 5/5/5 7/7/7 8/8/8
f 9/9/9 11/11/11 12/12/12
f 13/13/13 15/15/15 16/16/16
f 18/18/18 20/20/20 19/19/19
f 20/20/20 18/18/18 17/17/17
f 22/22/22 23/23/23 24/24/24
f 24/24/24 21/21/21 22/22/22
f 1/1/1 4/4/4 2/2/2
f 5/5/5 8/8/8 6/6/6
f 9/9/9 12/12/12 10/10/10
f 13/13/13 16/16/16 14/14/14
