# Rhino

mtllib 61.mtl
usemtl diffuse_0
v -20193.744140625 0 -1343.012451171875
v -20193.744140625 12 -1343.012451171875
v -20192.5703125 0 -1252.1220703125
v -20192.5703125 12 -1252.1220703125
v -20192.5703125 0 -1252.1220703125
v -20192.5703125 12 -1252.1220703125
v -19676.609375 0 -1264.2669677734375
v -19676.609375 12 -1264.2669677734375
v -19676.609375 0 -1264.2669677734375
v -19676.609375 12 -1264.2669677734375
v -19679.744140625 0 -1352.4149169921875
v -19679.744140625 12 -1352.4149169921875
v -19679.744140625 0 -1352.4149169921875
v -19679.744140625 12 -1352.4149169921875
v -20193.744140625 0 -1343.012451171875
v -20193.744140625 12 -1343.012451171875
v -20193.744140625 0 -1343.012451171875
v -20192.5703125 0 -1252.1220703125
v -19676.609375 0 -1264.2669677734375
v -19679.744140625 0 -1352.4149169921875
v -20193.744140625 12 -1343.012451171875
v -20192.5703125 12 -1252.1220703125
v -19676.609375 12 -1264.2669677734375
v -19679.744140625 12 -1352.4149169921875
vt 0 0
vt 0 0.52822363376617432
vt 0.07516634464263916 0
vt 0.07516634464263916 0.52822363376617432
vt 0.07516634464263916 0
vt 0.07516634464263916 0.52822363376617432
vt 0.50194746255874634 0
vt 0.50194746255874634 0.52822363376617432
vt 0.50194746255874634 0
vt 0.50194746255874634 0.52822363376617432
vt 0.5748857855796814 0
vt 0.5748857855796814 0.52822363376617432
vt 0.5748857855796814 0
vt 0.5748857855796814 0.52822363376617432
vt 1 0
vt 1 0.52822363376617432
vt 0 0.57245314121246338
vt 0.00097189733060076833 1
vt 0.42763480544090271 0.94287091493606567
vt 0.42504307627677917 0.52822417020797729
vt 0.5723651647567749 0.95577102899551392
vt 0.57333707809448242 0.52822417020797729
vt 1 0.58535325527191162
vt 0.99740827083587646 1
vn -0.9999164342880249 0 0.012929953634738922
vn -0.9999164342880249 0 0.012929953634738922
vn -0.9999164342880249 0 0.012929953634738922
vn -0.9999164342880249 0 0.012929953634738922
vn 0.023531826213002205 0 0.99972307682037354
vn 0.023531826213002205 0 0.99972307682037354
vn 0.023531826213002205 0 0.99972307682037354
vn 0.023531826213002205 0 0.99972307682037354
vn 0.99936848878860474 0 -0.035533100366592407
vn 0.99936848878860474 0 -0.035533100366592407
vn 0.99936848878860474 0 -0.035533100366592407
vn 0.99936848878860474 0 -0.035533100366592407
vn -0.018289623782038689 0 -0.99983274936676025
vn -0.018289623782038689 0 -0.99983274936676025
vn -0.018289623782038689 0 -0.99983274936676025
vn -0.018289623782038689 0 -0.99983274936676025
vn 0 -1 0
vn 0 -1 0
vn 0 -1 0
vn 0 -1 0
vn 0 1 0
vn 0 1 0
vn 0 1 0
vn 0 1 0
f 1/1/1 3/3/3 4/4/4
f 5/5/5 7/7/7 8/8/8
f 9/9/9 11/11/11 12/12/12
f 13/13/13 15/15/15 16/16/16
f 20/20/20 18/18/18 17/17/17
f 18/18/18 20/20/20 19/19/19
f 24/24/24 21/21/21 22/22/22
f 22/22/22 23/23/23 24/24/24
f 1/1/1 4/4/4 2/2/2
f 5/5/5 8/8/8 6/6/6
f 9/9/9 12/12/12 10/10/10
f 13/13/13 16/16/16 14/14/14
