# Rhino

mtllib 62.mtl
usemtl diffuse_0
v -18783.84765625 0 -1378.218017578125
v -18783.84765625 12 -1378.218017578125
v -18786.93359375 0 -1289.0252685546875
v -18786.93359375 12 -1289.0252685546875
v -18786.93359375 0 -1289.0252685546875
v -18786.93359375 12 -1289.0252685546875
v -18266.427734375 0 -1280.2860107421875
v -18266.427734375 12 -1280.2860107421875
v -18266.427734375 0 -1280.2860107421875
v -18266.427734375 12 -1280.2860107421875
v -18265.65625 0 -1369.9927978515625
v -18265.65625 12 -1369.9927978515625
v -18265.65625 0 -1369.9927978515625
v -18265.65625 12 -1369.9927978515625
v -18783.84765625 0 -1378.218017578125
v -18783.84765625 12 -1378.218017578125
v -18783.84765625 0 -1378.218017578125
v -18786.93359375 0 -1289.0252685546875
v -18266.427734375 0 -1280.2860107421875
v -18265.65625 0 -1369.9927978515625
v -18783.84765625 12 -1378.218017578125
v -18786.93359375 12 -1289.0252685546875
v -18266.427734375 12 -1280.2860107421875
v -18265.65625 12 -1369.9927978515625
vt 0 0
vt 0 0.52886474132537842
vt 0.073285147547721863 0
vt 0.073285147547721863 0.52886474132537842
vt 0.073285147547721863 0
vt 0.073285147547721863 0.52886474132537842
vt 0.50076258182525635 0
vt 0.50076258182525635 0.52886474132537842
vt 0.50076258182525635 0
vt 0.50076258182525635 0.52886474132537842
vt 0.57442879676818848 0
vt 0.57442879676818848 0.52886474132537842
vt 0.57442879676818848 0
vt 0.57442879676818848 0.52886474132537842
vt 1 0
vt 1 0.52886474132537842
vt 0.0025328428018838167 0.5288652777671814
vt 0 0.95795649290084839
vt 0.42741721868515015 1
vt 0.42805042862892151 0.56843560934066772
vt 0.57448244094848633 1
vt 0.57194960117340088 0.57090878486633301
vt 0.99936676025390625 0.5288652777671814
vt 1 0.9604296088218689
vn -0.99940258264541626 0 -0.034561473876237869
vn -0.99940258264541626 0 -0.034561473876237869
vn -0.99940258264541626 0 -0.034561473876237869
vn -0.99940258264541626 0 -0.034561473876237869
vn -0.016787758097052574 0 0.99985909461975098
vn -0.016787758097052574 0 0.99985909461975098
vn -0.016787758097052574 0 0.99985909461975098
vn -0.016787758097052574 0 0.99985909461975098
vn 0.99996304512023926 0 0.008595670573413372
vn 0.99996304512023926 0 0.008595670573413372
vn 0.99996304512023926 0 0.008595670573413372
vn 0.99996304512023926 0 0.008595670573413372
vn 0.015871016308665276 0 -0.9998740553855896
vn 0.015871016308665276 0 -0.9998740553855896
vn 0.015871016308665276 0 -0.9998740553855896
vn 0.015871016308665276 0 -0.9998740553855896
vn 0 -1 0
vn 0 -1 0
vn 0 -1 0
vn 0 -1 0
vn 0 1 0
vn 0 1 0
vn 0 1 0
vn 0 1 0
f 1/1/1 3/3/3 4/4/4
f 5/5/5 7/7/7 8/8/8
f 9/9/9 11/11/11 12/12/12
f 13/13/13 15/15/15 16/16/16
f 19/19/19 18/18/18 17/17/17
f 17/17/17 20/20/20 19/19/19
f 23/23/23 21/21/21 22/22/22
f 21/21/21 23/23/23 24/24/24
f 1/1/1 4/4/4 2/2/2
f 5/5/5 8/8/8 6/6/6
f 9/9/9 12/12/12 10/10/10
f 13/13/13 16/16/16 14/14/14
