# Rhino

mtllib 63.mtl
usemtl diffuse_0
v -17356.955078125 0 -1320.3082275390625
v -17356.955078125 12 -1320.3082275390625
v -17343.634765625 0 -1232.94384765625
v -17343.634765625 12 -1232.94384765625
v -17343.634765625 0 -1232.94384765625
v -17343.634765625 12 -1232.94384765625
v -16822.974609375 0 -1317.5657958984375
v -16822.974609375 12 -1317.5657958984375
v -16822.974609375 0 -1317.5657958984375
v -16822.974609375 12 -1317.5657958984375
v -16840.603515625 0 -1406.497314453125
v -16840.603515625 12 -1406.497314453125
v -16840.603515625 0 -1406.497314453125
v -16840.603515625 12 -1406.497314453125
v -17356.955078125 0 -1320.3082275390625
v -17356.955078125 12 -1320.3082275390625
v -17356.955078125 0 -1320.3082275390625
v -17343.634765625 0 -1232.94384765625
v -16822.974609375 0 -1317.5657958984375
v -16840.603515625 0 -1406.497314453125
v -17356.955078125 12 -1320.3082275390625
v -17343.634765625 12 -1232.94384765625
v -16822.974609375 12 -1317.5657958984375
v -16840.603515625 12 -1406.497314453125
vt 0 0
vt 0 0.53105306625366211
vt 0.071847416460514069 0
vt 0.071847416460514069 0.53105306625366211
vt 0.071847416460514069 0
vt 0.071847416460514069 0.53105306625366211
vt 0.5006948709487915 0
vt 0.5006948709487915 0.53105306625366211
vt 0.5006948709487915 0
vt 0.5006948709487915 0.53105306625366211
vt 0.57440245151519775 0
vt 0.57440245151519775 0.53105306625366211
vt 0.57440245151519775 0
vt 0.57440245151519775 0.53105306625366211
vt 1 0
vt 1 0.53105306625366211
vt 0.0007054030429571867 0.54263710975646973
vt 0 1
vt 0.42884746193885803 1
vt 0.42629906535148621 0.53105360269546509
vt 0.57185792922973633 0.98841649293899536
vt 0.57115256786346436 0.53105360269546509
vt 1 0.53105360269546509
vt 0.99745160341262817 1
vn -0.98857581615447998 0 0.15072456002235413
vn -0.98857581615447998 0 0.15072456002235413
vn -0.98857581615447998 0 0.15072456002235413
vn -0.98857581615447998 0 0.15072456002235413
vn 0.16042320430278778 0 0.98704832792282104
vn 0.16042320430278778 0 0.98704832792282104
vn 0.16042320430278778 0 0.98704832792282104
vn 0.16042320430278778 0 0.98704832792282104
vn 0.98091167211532593 0 -0.19445385038852692
vn 0.98091167211532593 0 -0.19445385038852692
vn 0.98091167211532593 0 -0.19445385038852692
vn 0.98091167211532593 0 -0.19445385038852692
vn -0.16464169323444366 0 -0.98635345697402954
vn -0.16464169323444366 0 -0.98635345697402954
vn -0.16464169323444366 0 -0.98635345697402954
vn -0.16464169323444366 0 -0.98635345697402954
vn 0 -1 0
vn 0 -1 0
vn 0 -1 0
vn 0 -1 0
vn 0 1 0
vn 0 1 0
vn 0 1 0
vn 0 1 0
f 1/1/1 3/3/3 4/4/4
f 5/5/5 7/7/7 8/8/8
f 9/9/9 11/11/11 12/12/12
f 13/13/13 15/15/15 16/16/16
f 20/20/20 18/18/18 17/17/17
f 18/18/18 20/20/20 19/19/19
f 24/24/24 21/21/21 22/22/22
f 22/22/22 23/23/23 24/24/24
f 1/1/1 4/4/4 2/2/2
f 5/5/5 8/8/8 6/6/6
f 9/9/9 12/12/12 10/10/10
f 13/13/13 16/16/16 14/14/14
