# Rhino

mtllib 65.mtl
usemtl diffuse_0
v -14533.9072265625 0 -1362.72900390625
v -14533.9072265625 12 -1362.72900390625
v -14530.0986328125 0 -1275.1451416015625
v -14530.0986328125 12 -1275.1451416015625
v -14530.0986328125 0 -1275.1451416015625
v -14530.0986328125 12 -1275.1451416015625
v -13926.4755859375 0 -1297.5201416015625
v -13926.4755859375 12 -1297.5201416015625
v -13926.4755859375 0 -1297.5201416015625
v -13926.4755859375 12 -1297.5201416015625
v -13932.7216796875 0 -1385.1732177734375
v -13932.7216796875 12 -1385.1732177734375
v -13932.7216796875 0 -1385.1732177734375
v -13932.7216796875 12 -1385.1732177734375
v -14533.9072265625 0 -1362.72900390625
v -14533.9072265625 12 -1362.72900390625
v -14533.9072265625 0 -1362.72900390625
v -14530.0986328125 0 -1275.1451416015625
v -13926.4755859375 0 -1297.5201416015625
v -13932.7216796875 0 -1385.1732177734375
v -14533.9072265625 12 -1362.72900390625
v -14530.0986328125 12 -1275.1451416015625
v -13926.4755859375 12 -1297.5201416015625
v -13932.7216796875 12 -1385.1732177734375
vt 0 0
vt 0 0.53197437524795532
vt 0.063472054898738861 0
vt 0.063472054898738861 0.53197437524795532
vt 0.063472054898738861 0
vt 0.063472054898738861 0.53197437524795532
vt 0.50080549716949463 0
vt 0.50080549716949463 0.53197437524795532
vt 0.50080549716949463 0
vt 0.50080549716949463 0.53197437524795532
vt 0.56442868709564209 0
vt 0.56442868709564209 0.53197437524795532
vt 0.56442868709564209 0
vt 0.56442868709564209 0.53197437524795532
vt 1 0
vt 1 0.53197437524795532
vt 0 0.53282475471496582
vt 0.00040622401866130531 1
vt 0.43773967027664185 1
vt 0.43557131290435791 0.5319749116897583
vt 0.56226032972335815 0.99915015697479248
vt 0.56266653537750244 0.5319749116897583
vt 1 0.5319749116897583
vt 0.99783164262771606 1
vn -0.99905616044998169 0 0.043437223881483078
vn -0.99905616044998169 0 0.043437223881483078
vn -0.99905616044998169 0 0.043437223881483078
vn -0.99905616044998169 0 0.043437223881483078
vn 0.037042330950498581 0 0.99931371212005615
vn 0.037042330950498581 0 0.99931371212005615
vn 0.037042330950498581 0 0.99931371212005615
vn 0.037042330950498581 0 0.99931371212005615
vn 0.99747073650360107 0 -0.071078673005104065
vn 0.99747073650360107 0 -0.071078673005104065
vn 0.99747073650360107 0 -0.071078673005104065
vn 0.99747073650360107 0 -0.071078673005104065
vn -0.037307228893041611 0 -0.99930381774902344
vn -0.037307228893041611 0 -0.99930381774902344
vn -0.037307228893041611 0 -0.99930381774902344
vn -0.037307228893041611 0 -0.99930381774902344
vn 0 -1 0
vn 0 -1 0
vn 0 -1 0
vn 0 -1 0
vn 0 1 0
vn 0 1 0
vn 0 1 0
vn 0 1 0
f 1/1/1 3/3/3 4/4/4
f 5/5/5 7/7/7 8/8/8
f 9/9/9 11/11/11 12/12/12
f 13/13/13 15/15/15 16/16/16
f 20/20/20 18/18/18 17/17/17
f 18/18/18 20/20/20 19/19/19
f 24/24/24 21/21/21 22/22/22
f 22/22/22 23/23/23 24/24/24
f 1/1/1 4/4/4 2/2/2
f 5/5/5 8/8/8 6/6/6
f 9/9/9 12/12/12 10/10/10
f 13/13/13 16/16/16 14/14/14
